<svg width="47" height="31" viewBox="0 0 47 31" fill="none" xmlns="http://www.w3.org/2000/svg">
<path fill-rule="evenodd" clip-rule="evenodd" d="M35.24 20.012C35.24 19.3179 35.1808 18.6504 35.0708 18.0096H26.3061V21.7964H31.3145C31.0988 23.0201 30.4431 24.0569 29.4575 24.751V27.2073H32.4651C34.2248 25.503 35.24 22.9934 35.24 20.012Z" fill="#4285F4"/>
<path fill-rule="evenodd" clip-rule="evenodd" d="M26.3061 29.579C28.8188 29.579 30.9253 28.7024 32.4651 27.2073L29.4575 24.751C28.6242 25.3384 27.5582 25.6855 26.3061 25.6855C23.8823 25.6855 21.8307 23.9634 21.0989 21.6495H17.9898V24.1859C19.5211 27.3853 22.6683 29.579 26.3061 29.579Z" fill="#34A853"/>
<path fill-rule="evenodd" clip-rule="evenodd" d="M21.0989 21.6494C20.9128 21.0621 20.807 20.4346 20.807 19.7894C20.807 19.1442 20.9128 18.5168 21.0989 17.9294V15.3931H17.9898C17.3596 16.7146 17 18.2098 17 19.7894C17 21.3691 17.3596 22.8642 17.9898 24.1858L21.0989 21.6494Z" fill="#FBBC05"/>
<path fill-rule="evenodd" clip-rule="evenodd" d="M26.3061 13.8935C27.6724 13.8935 28.8992 14.3875 29.8636 15.3575L32.5328 12.5497C30.9211 10.97 28.8146 10 26.3061 10C22.6683 10 19.5211 12.1937 17.9898 15.3931L21.0989 17.9295C21.8307 15.6156 23.8823 13.8935 26.3061 13.8935Z" fill="#EA4335"/>
<path d="M8.46307 3.8551C8.91644 3.04401 10.0836 3.04401 10.5369 3.8551L10.5597 3.89578C10.7284 4.19765 11.0298 4.40207 11.3727 4.44719L11.5535 4.47099C12.4184 4.58479 12.7444 5.66585 12.0866 6.23881V6.23881C11.8152 6.4752 11.6907 6.84317 11.7578 7.19674V7.19674C11.9182 8.04131 11.0594 8.73203 10.2797 8.37001L10.0091 8.24435C9.68624 8.09447 9.31376 8.09447 8.99094 8.24435L8.72029 8.37001C7.94058 8.73202 7.08181 8.04131 7.24216 7.19674V7.19674C7.30929 6.84317 7.18476 6.4752 6.91339 6.23881V6.23881C6.25563 5.66585 6.58164 4.58479 7.4465 4.47099L7.62732 4.44719C7.97019 4.40207 8.2716 4.19765 8.44033 3.89578L8.46307 3.8551Z" fill="#FCD503"/>
<path d="M17.0629 3.88603C17.4477 3.11166 18.5523 3.11166 18.9371 3.88603V3.88603C19.0894 4.19268 19.3822 4.40539 19.7209 4.45553V4.45553C20.5763 4.58216 20.9177 5.63275 20.3001 6.23796V6.23796C20.0555 6.47763 19.9437 6.82179 20.0007 7.15944V7.15944C20.1446 8.01207 19.2509 8.66137 18.4844 8.26104V8.26104C18.1809 8.10251 17.8191 8.10251 17.5156 8.26104V8.26104C16.7491 8.66137 15.8554 8.01207 15.9993 7.15944V7.15944C16.0563 6.82179 15.9445 6.47763 15.6999 6.23796V6.23796C15.0823 5.63275 15.4237 4.58216 16.2791 4.45553V4.45553C16.6178 4.40539 16.9106 4.19268 17.0629 3.88603V3.88603Z" fill="#FCD503"/>
<path d="M25.0629 3.88603C25.4477 3.11166 26.5523 3.11166 26.9371 3.88603V3.88603C27.0894 4.19268 27.3822 4.40539 27.7209 4.45553V4.45553C28.5763 4.58216 28.9177 5.63275 28.3001 6.23796V6.23796C28.0555 6.47763 27.9437 6.82179 28.0007 7.15944V7.15944C28.1446 8.01207 27.2509 8.66137 26.4844 8.26104V8.26104C26.1809 8.10251 25.8191 8.10251 25.5156 8.26104V8.26104C24.7491 8.66137 23.8554 8.01207 23.9993 7.15944V7.15944C24.0563 6.82179 23.9445 6.47763 23.6999 6.23796V6.23796C23.0823 5.63275 23.4237 4.58216 24.2791 4.45553V4.45553C24.6178 4.40539 24.9106 4.19268 25.0629 3.88603V3.88603Z" fill="#FCD503"/>
<path d="M33.0629 3.88603C33.4477 3.11166 34.5523 3.11166 34.9371 3.88603V3.88603C35.0894 4.19268 35.3822 4.40539 35.7209 4.45553V4.45553C36.5763 4.58216 36.9177 5.63275 36.3001 6.23796V6.23796C36.0555 6.47763 35.9437 6.82179 36.0007 7.15944V7.15944C36.1446 8.01207 35.2509 8.66137 34.4844 8.26104V8.26104C34.1809 8.10251 33.8191 8.10251 33.5156 8.26104V8.26104C32.7491 8.66137 31.8554 8.01207 31.9993 7.15944V7.15944C32.0563 6.82179 31.9445 6.47763 31.6999 6.23796V6.23796C31.0823 5.63275 31.4237 4.58216 32.2791 4.45553V4.45553C32.6178 4.40539 32.9106 4.19268 33.0629 3.88603V3.88603Z" fill="#FCD503"/>
<path d="M41.4631 3.8551C41.9164 3.04401 43.0836 3.04401 43.5369 3.8551L43.5597 3.89578C43.7284 4.19765 44.0298 4.40207 44.3727 4.44719L44.5535 4.47099C45.4184 4.58479 45.7444 5.66585 45.0866 6.23881V6.23881C44.8152 6.4752 44.6907 6.84317 44.7578 7.19674V7.19674C44.9182 8.04131 44.0594 8.73203 43.2797 8.37001L43.0091 8.24435C42.6862 8.09447 42.3138 8.09447 41.9909 8.24435L41.7203 8.37001C40.9406 8.73202 40.0818 8.04131 40.2422 7.19674V7.19674C40.3093 6.84317 40.1848 6.4752 39.9134 6.23881V6.23881C39.2556 5.66585 39.5816 4.58479 40.4465 4.47099L40.6273 4.44719C40.9702 4.40207 41.2716 4.19765 41.4403 3.89578L41.4631 3.8551Z" fill="#FCD503"/>
</svg>
